<svg width="80" height="80" viewBox="0 0 80 80" fill="none" xmlns="http://www.w3.org/2000/svg">
<rect width="80" height="80" rx="40" fill="white"/>
<circle cx="25" cy="22" r="2" fill="black"/>
<circle cx="31" cy="22" r="2" fill="black"/>
<circle cx="37" cy="22" r="2" fill="black"/>
<circle cx="43" cy="22" r="2" fill="black"/>
<circle cx="49" cy="22" r="2" fill="black"/>
<circle cx="55" cy="22" r="2" fill="black"/>
<circle cx="25" cy="34" r="2" fill="black"/>
<circle cx="31" cy="34" r="2" fill="black"/>
<circle cx="37" cy="34" r="2" fill="black"/>
<circle cx="43" cy="34" r="2" fill="black"/>
<circle cx="49" cy="34" r="2" fill="black"/>
<circle cx="55" cy="34" r="2" fill="black"/>
<circle cx="25" cy="46" r="2" fill="black"/>
<circle cx="31" cy="46" r="2" fill="black"/>
<circle cx="37" cy="46" r="2" fill="black"/>
<circle cx="43" cy="46" r="2" fill="black"/>
<circle cx="49" cy="46" r="2" fill="black"/>
<circle cx="55" cy="46" r="2" fill="black"/>
<circle cx="25" cy="58" r="2" fill="black"/>
<circle cx="31" cy="58" r="2" fill="black"/>
<circle cx="37" cy="58" r="2" fill="black"/>
<circle cx="43" cy="58" r="2" fill="black"/>
<circle cx="49" cy="58" r="2" fill="black"/>
<circle cx="55" cy="58" r="2" fill="black"/>
<circle cx="22" cy="28" r="2" fill="black"/>
<circle cx="28" cy="28" r="2" fill="black"/>
<circle cx="34" cy="28" r="2" fill="black"/>
<circle cx="40" cy="28" r="2" fill="black"/>
<circle cx="46" cy="28" r="2" fill="black"/>
<circle cx="52" cy="28" r="2" fill="black"/>
<circle cx="58" cy="28" r="2" fill="black"/>
<circle cx="22" cy="40" r="2" fill="black"/>
<circle cx="28" cy="40" r="2" fill="black"/>
<circle cx="34" cy="40" r="2" fill="black"/>
<circle cx="40" cy="40" r="2" fill="black"/>
<circle cx="46" cy="40" r="2" fill="black"/>
<circle cx="52" cy="40" r="2" fill="black"/>
<circle cx="58" cy="40" r="2" fill="black"/>
<circle cx="22" cy="52" r="2" fill="black"/>
<circle cx="28" cy="52" r="2" fill="black"/>
<circle cx="34" cy="52" r="2" fill="black"/>
<circle cx="40" cy="52" r="2" fill="black"/>
<circle cx="46" cy="52" r="2" fill="black"/>
<circle cx="52" cy="52" r="2" fill="black"/>
<circle cx="58" cy="52" r="2" fill="black"/>
</svg>
